<?xml version="1.0" encoding="UTF-8" standalone="no"?>
<!-- Created with Inkscape (http://www.inkscape.org/) -->

<svg
   width="8mm"
   height="8mm"
   viewBox="0 0 8 8"
   version="1.1"
   id="svg991"
   inkscape:version="1.1 (c68e22c387, 2021-05-23)"
   sodipodi:docname="czarne_pole.svg"
   xmlns:inkscape="http://www.inkscape.org/namespaces/inkscape"
   xmlns:sodipodi="http://sodipodi.sourceforge.net/DTD/sodipodi-0.dtd"
   xmlns="http://www.w3.org/2000/svg"
   xmlns:svg="http://www.w3.org/2000/svg">
  <sodipodi:namedview
     id="namedview993"
     pagecolor="#ffffff"
     bordercolor="#666666"
     borderopacity="1.0"
     inkscape:pageshadow="2"
     inkscape:pageopacity="0.0"
     inkscape:pagecheckerboard="0"
     inkscape:document-units="mm"
     showgrid="false"
     lock-margins="true"
     fit-margin-top="0"
     fit-margin-left="0"
     fit-margin-right="0"
     fit-margin-bottom="0"
     inkscape:zoom="16.972785"
     inkscape:cx="12.726256"
     inkscape:cy="20.061528"
     inkscape:window-width="1920"
     inkscape:window-height="1027"
     inkscape:window-x="-8"
     inkscape:window-y="-8"
     inkscape:window-maximized="1"
     inkscape:current-layer="layer1" />
  <defs
     id="defs988" />
  <g
     inkscape:label="Warstwa 1"
     inkscape:groupmode="layer"
     id="layer1">
    <rect
       style="fill:#000000;fill-opacity:1;stroke-width:0.151918"
       id="rect2837-0"
       width="8"
       height="8"
       x="0"
       y="0" />
    <path
       fill="#000000"
       d="m 3.1021583,1.7227046 c -0.0118,0.07392 -0.0118,0.07392 -0.0135,0.210397 -0.0266,0.02666 1.0055403,0.203572 1.4237403,1.046297 0.1523,0.152303 -0.20348,0.173685 -0.0512,0.325899 -0.15026,0.145253 -0.44055,0.415104 -0.57342,0.543209 -0.1347,0.129693 -0.5930703,0.571003 -0.7277703,0.7006069 -0.16213,0.156217 -0.32435,0.312252 -0.48649,0.468421 -0.28063,0.270311 -0.56126,0.540575 -0.8419,0.810747 -0.0131,0.01258 -0.0262,0.02533 -0.0394,0.03795 -0.0362,0.03482 -0.0365,0.09367 -0.003,0.126872 0.0529,0.0529 0.077,0.07693 0.12993,0.129879 0.053,0.05295 0.077,0.07702 0.12997,0.129925 0.0332,0.03318 0.0921,0.03293 0.12687,-0.0034 0.0126,-0.01305 0.0252,-0.02622 0.0379,-0.03926 0.27021,-0.280683 0.54048,-0.561361 0.8107,-0.842044 0.15399,-0.159902 0.30798,-0.319757 0.4619103,-0.479701 0.12752,-0.132563 0.5797,-0.6020309 0.70721,-0.7345019 0.12797,-0.132973 0.41234,-0.416108 0.55767,-0.566364 0.0439,0.04386 0.0244,0.01296 0.0682,0.05686 0.10896,-0.02698 0.13903,-0.152257 0.25589,-0.108041 0.19607,0.07397 0.43217,0.335499 0.63687,0.608444 0.0302,0.01144 0.50896,0.8656509 0.52316,0.8472749 -0.24074,-1.4557649 -0.99157,-1.9230929 -0.99157,-1.9230929 -5e-5,0 -1e-4,-9.3e-5 -1.9e-4,-1.82e-4 0.0397,-0.04078 0.0794,-0.08157 0.11915,-0.122372 0.0184,-0.01878 0.0196,-0.04854 0.002,-0.06646 -0.0675,-0.06751 -0.13516,-0.135062 -0.20276,-0.202665 -0.0179,-0.01786 -0.0476,-0.01659 -0.0665,0.0017 -0.0408,0.03968 -0.0817,0.07947 -0.12238,0.119232 -4e-5,-4.3e-5 -4e-5,-8.9e-5 -9e-5,-1.35e-4 -0.33185,-0.510776 -1.8706803,-1.07564 -1.8706803,-1.07564 z"
       id="path7929"
       style="opacity:0.8;fill:#ffffff;stroke-width:0.0454912" />
  </g>
</svg>
