<?xml version="1.0" encoding="UTF-8" standalone="no"?>
<!-- Created with Inkscape (http://www.inkscape.org/) -->

<svg
   width="8mm"
   height="8mm"
   viewBox="0 0 8 8"
   version="1.1"
   id="svg991"
   inkscape:version="1.1 (c68e22c387, 2021-05-23)"
   sodipodi:docname="czerwone_pole.svg"
   xmlns:inkscape="http://www.inkscape.org/namespaces/inkscape"
   xmlns:sodipodi="http://sodipodi.sourceforge.net/DTD/sodipodi-0.dtd"
   xmlns="http://www.w3.org/2000/svg"
   xmlns:svg="http://www.w3.org/2000/svg">
  <sodipodi:namedview
     id="namedview993"
     pagecolor="#ffffff"
     bordercolor="#666666"
     borderopacity="1.0"
     inkscape:pageshadow="2"
     inkscape:pageopacity="0.0"
     inkscape:pagecheckerboard="0"
     inkscape:document-units="mm"
     showgrid="false"
     lock-margins="true"
     fit-margin-top="0"
     fit-margin-left="0"
     fit-margin-right="0"
     fit-margin-bottom="0"
     inkscape:zoom="8.4863924"
     inkscape:cx="-5.4204423"
     inkscape:cy="27.750308"
     inkscape:window-width="1920"
     inkscape:window-height="1027"
     inkscape:window-x="-8"
     inkscape:window-y="-8"
     inkscape:window-maximized="1"
     inkscape:current-layer="layer1" />
  <defs
     id="defs988" />
  <g
     inkscape:label="Warstwa 1"
     inkscape:groupmode="layer"
     id="layer1">
    <rect
       style="fill:#cc0000;fill-opacity:1;stroke-width:0.151918"
       id="rect2837-3-4"
       width="8"
       height="8"
       x="0"
       y="0" />
    <path
       d="m 3.9990888,1.8277346 c 0.4384229,0.1561821 0.8442054,0.4024542 1.1865008,0.7176578 0.3283139,0.305967 0.6068817,0.6807827 0.7394703,1.1138588 0.089842,0.2784728 0.071364,0.5794 0.012791,0.8621133 -0.059266,0.2633569 -0.175213,0.5144052 -0.3439503,0.7256668 0.191356,0.1871105 0.3808968,0.3760733 0.5727509,0.5626928 -0.025624,0.095607 -0.0648,0.1933063 -0.1433281,0.257752 C 5.9576582,6.1242092 5.8735028,6.1516413 5.7906433,6.1722666 5.603264,5.9775976 5.414939,5.7838982 5.2274584,5.5893318 4.9939381,5.7488751 4.7121071,5.8329676 4.4306856,5.845391 4.0762239,5.861057 3.7218846,5.7468124 3.4326702,5.5438549 3.2767029,5.4366763 3.1361357,5.3085152 3.007186,5.1703872 c -0.022205,0.021719 -0.046335,0.04124 -0.071073,0.059786 0.00599,0.04634 0.012791,0.092652 0.019208,0.1390053 -0.048336,0.00287 -0.096659,0.014543 -0.1374518,0.041907 C 2.6923472,5.4905886 2.6052662,5.614036 2.516197,5.7299083 2.4058936,5.873279 2.3065324,6.0324014 2.1526337,6.1339566 2.0593767,6.1915833 1.9213508,6.1672177 1.8642256,6.0703898 1.8044915,5.9753644 1.8389811,5.8527444 1.9031477,5.7693894 2.0604025,5.5382632 2.3411697,5.4394739 2.5169611,5.2265478 c 0.045803,-0.0572 0.080314,-0.1235111 0.097377,-0.1949004 0.044934,0.00287 0.08969,0.00567 0.1346107,0.00867 0.038078,-0.038593 0.076337,-0.076973 0.1142885,-0.1156795 0.042215,-0.00106 0.085287,0.00342 0.1270795,-0.0048 0.043465,-0.038407 0.078321,-0.08563 0.117691,-0.1281742 0.043068,0.012082 0.067523,0.052467 0.098796,0.081336 0.1926643,0.175486 0.4130051,0.3284108 0.6641121,0.406394 C 4.192049,5.382279 4.5498245,5.3496 4.8510448,5.1999051 4.2476924,4.5786919 3.6463494,3.9554918 3.0438159,3.3334373 2.9086353,3.475694 2.774109,3.6184973 2.6370625,3.7588965 2.4697057,3.5881634 2.3007025,3.4190352 2.1324887,3.2491396 2.4495438,2.9317645 2.7701704,2.6179497 3.0889774,2.3023257 3.3646155,2.3773652 3.6398821,2.4537126 3.9157608,2.5278627 3.727229,2.699018 3.5355901,2.8667109 3.3464082,3.0371278 3.9750643,3.6534344 4.6005964,4.2730133 5.230253,4.8883945 5.3822478,4.7034543 5.4678048,4.4679711 5.479435,4.2295463 5.5008802,3.9140832 5.4278357,3.6002546 5.3238983,3.3043339 5.1768638,2.9137953 4.8958771,2.592278 4.5904184,2.3156893 4.3995141,2.1459963 4.2027842,1.9826456 3.9996545,1.8277367 Z"
       fill="#ffd600"
       id="path8387"
       style="stroke-width:0.0144788" />
  </g>
</svg>
