<?xml version="1.0" encoding="UTF-8" standalone="no"?>
<!-- Created with Inkscape (http://www.inkscape.org/) -->

<svg
   width="5.3877554mm"
   height="8mm"
   viewBox="0 0 5.3877554 8"
   version="1.1"
   id="svg991"
   inkscape:version="1.1 (c68e22c387, 2021-05-23)"
   sodipodi:docname="fioletowe_pole.svg"
   xmlns:inkscape="http://www.inkscape.org/namespaces/inkscape"
   xmlns:sodipodi="http://sodipodi.sourceforge.net/DTD/sodipodi-0.dtd"
   xmlns="http://www.w3.org/2000/svg"
   xmlns:svg="http://www.w3.org/2000/svg">
  <sodipodi:namedview
     id="namedview993"
     pagecolor="#ffffff"
     bordercolor="#666666"
     borderopacity="1.0"
     inkscape:pageshadow="2"
     inkscape:pageopacity="0.0"
     inkscape:pagecheckerboard="0"
     inkscape:document-units="mm"
     showgrid="false"
     lock-margins="true"
     fit-margin-top="0"
     fit-margin-left="0"
     fit-margin-right="0"
     fit-margin-bottom="0"
     inkscape:zoom="8.4863924"
     inkscape:cx="-5.4204423"
     inkscape:cy="27.750308"
     inkscape:window-width="1920"
     inkscape:window-height="1027"
     inkscape:window-x="-8"
     inkscape:window-y="-8"
     inkscape:window-maximized="1"
     inkscape:current-layer="layer1" />
  <defs
     id="defs988" />
  <g
     inkscape:label="Warstwa 1"
     inkscape:groupmode="layer"
     id="layer1">
    <rect
       style="fill:#7f0f70;fill-opacity:1;stroke:#ab734c;stroke-width:0.163265;stroke-miterlimit:4;stroke-dasharray:none;stroke-opacity:1"
       id="rect2941-0-9"
       width="5.2244902"
       height="7.8367348"
       x="0.081632502"
       y="0.081632502" />
    <g
       id="g5559"
       transform="matrix(0.19047621,0,0,0.22929809,0.40816233,1.2484121)"
       style="opacity:0.8">
      <path
         fill="none"
         d="M 0,0 H 24 V 24 H 0 Z"
         id="path5555"
         style="opacity:0.8" />
      <path
         d="m 12,19 c 0.828,0 1.5,0.672 1.5,1.5 0,0.828 -0.672,1.5 -1.5,1.5 -0.828,0 -1.5,-0.672 -1.5,-1.5 0,-0.828 0.672,-1.5 1.5,-1.5 z M 12,2 c 3.314,0 6,2.686 6,6 0,2.165 -0.753,3.29 -2.674,4.923 C 13.399,14.56 13,15.297 13,17 h -2 c 0,-2.474 0.787,-3.695 3.031,-5.601 C 15.548,10.11 16,9.434 16,8 16,5.79 14.21,4 12,4 9.79,4 8,5.79 8,8 V 9 H 6 V 8 C 6,4.686 8.686,2 12,2 Z"
         id="path5557"
         style="opacity:0.971" />
    </g>
  </g>
</svg>
