<?xml version="1.0" encoding="UTF-8" standalone="no"?>
<!-- Created with Inkscape (http://www.inkscape.org/) -->

<svg
   width="8mm"
   height="8mm"
   viewBox="0 0 8 8"
   version="1.1"
   id="svg991"
   inkscape:version="1.1 (c68e22c387, 2021-05-23)"
   sodipodi:docname="seledynowe_pole.svg"
   xmlns:inkscape="http://www.inkscape.org/namespaces/inkscape"
   xmlns:sodipodi="http://sodipodi.sourceforge.net/DTD/sodipodi-0.dtd"
   xmlns="http://www.w3.org/2000/svg"
   xmlns:svg="http://www.w3.org/2000/svg">
  <sodipodi:namedview
     id="namedview993"
     pagecolor="#ffffff"
     bordercolor="#666666"
     borderopacity="1.0"
     inkscape:pageshadow="2"
     inkscape:pageopacity="0.0"
     inkscape:pagecheckerboard="0"
     inkscape:document-units="mm"
     showgrid="false"
     lock-margins="true"
     fit-margin-top="0"
     fit-margin-left="0"
     fit-margin-right="0"
     fit-margin-bottom="0"
     inkscape:zoom="8.4863924"
     inkscape:cx="-5.4204423"
     inkscape:cy="8.8965954"
     inkscape:window-width="1920"
     inkscape:window-height="1027"
     inkscape:window-x="-8"
     inkscape:window-y="-8"
     inkscape:window-maximized="1"
     inkscape:current-layer="layer1" />
  <defs
     id="defs988" />
  <g
     inkscape:label="Warstwa 1"
     inkscape:groupmode="layer"
     id="layer1">
    <rect
       style="fill:#0088aa;fill-opacity:1;stroke-width:0.151918"
       id="rect2837"
       width="8"
       height="8"
       x="0"
       y="0" />
    <g
       id="g6580"
       transform="matrix(0.00892857,0,0,0.00892857,1.7142853,1.784216)"
       style="fill:#ffffff">
      <polygon
         fill="var(--ci-primary-color, currentColor)"
         points="144,284.081 112,266.303 112,369.357 256,450.357 400,369.357 400,266.303 368,284.081 368,350.643 256,413.643 144,350.643 "
         class="ci-primary"
         id="polygon6568"
         style="fill:#ffffff" />
      <path
         fill="var(--ci-primary-color, currentColor)"
         d="M 256,45.977 32,162.125 v 27.734 L 256,314.3 448,207.637 V 296 h 32 V 162.125 Z M 416,188.808 384,206.585 256,277.7 128,206.585 96,188.808 73.821,176.486 256,82.023 438.179,176.486 Z"
         class="ci-primary"
         id="path6570"
         style="fill:#ffffff" />
    </g>
  </g>
</svg>
